<?xml version="1.0" encoding="UTF-8" standalone="no"?>
<!-- Created with Inkscape (http://www.inkscape.org/) -->

<svg
   version="1.1"
   id="svg1"
   width="639.14935"
   height="279.444"
   viewBox="0 0 639.14935 279.444"
   sodipodi:docname="StateSpaceDiagram.svg"
   xmlns:inkscape="http://www.inkscape.org/namespaces/inkscape"
   xmlns:sodipodi="http://sodipodi.sourceforge.net/DTD/sodipodi-0.dtd"
   xmlns="http://www.w3.org/2000/svg"
   xmlns:svg="http://www.w3.org/2000/svg">
  <defs
     id="defs1" />
  <sodipodi:namedview
     id="namedview1"
     pagecolor="#ffffff"
     bordercolor="#000000"
     borderopacity="0.25"
     inkscape:showpageshadow="2"
     inkscape:pageopacity="0.0"
     inkscape:pagecheckerboard="0"
     inkscape:deskcolor="#d1d1d1">
    <inkscape:page
       x="0"
       y="0"
       inkscape:label="1"
       id="page1"
       width="639.14935"
       height="279.444"
       margin="0"
       bleed="0" />
  </sodipodi:namedview>
  <g
     id="g1"
     inkscape:groupmode="layer"
     inkscape:label="1">
    <path
       id="path1"
       d="m 70.867,0 v 56.69362 h 56.69362 V 0 Z"
       style="fill:none;stroke:#000000;stroke-width:1.19553;stroke-linecap:butt;stroke-linejoin:miter;stroke-miterlimit:10;stroke-dasharray:none;stroke-opacity:1"
       transform="matrix(1.3333333,0,0,-1.3333333,168.64667,177.51733)" />
    <path
       id="path2"
       d="m 6.7388281,21.810055 c -0.3164062,4.066406 -1.2070312,5.179687 -2.625,5.179687 -0.3164062,0 -1.0664062,-0.07031 -1.5820312,-0.515625 0.7148437,-0.105469 0.9140625,-0.667969 0.9140625,-1.019531 0,-0.714844 -0.5507813,-1.042969 -1.0195313,-1.042969 -0.4921875,0 -1.0429687,0.328125 -1.0429687,1.066406 0,1.195313 1.2421875,2.0625 2.7304687,2.0625 2.3554688,0 3.5507813,-2.15625 4.0898438,-4.394531 0.328125,-1.289062 1.21875,-8.496094 1.4179687,-11.25 L 10.090391,5.7319297 c 0.339843,-4.5703125 1.183593,-5.17968751 2.308593,-5.17968751 0.246094,0 1.007813,0.046875 1.558594,0.51562501 -0.726562,0.09375 -0.925781,0.6679687 -0.925781,1.0195312 0,0.7148438 0.550781,1.03125 1.019531,1.03125 0.503906,0 1.042969,-0.3164062 1.042969,-1.0546875 0,-1.19531246 -1.242188,-2.06249996 -2.730469,-2.06249996 -2.355469,0 -3.3164061,2.40234376 -3.7382811,4.28906246 C 8.3325781,5.6498984 7.4419531,12.645992 7.2075781,15.645992 Z m 0,0"
       style="fill:#000000;fill-opacity:1;fill-rule:nonzero;stroke:none"
       aria-label="R"
       transform="matrix(1.3333333,0,0,1.3333333,289.91333,121.36133)" />
    <g
       id="g2"
       aria-label="˙&#10;x=Ax+Bu&#10;y=Cx+Du"
       transform="matrix(1.3333333,0,0,1.3333333,69.816,225.44133)">
      <path
         id="path3"
         d="m 2.8362422,-10.605414 c 0,-0.410156 -0.328125,-0.703125 -0.6796875,-0.703125 -0.421875,0 -0.7148438,0.328125 -0.7148438,0.703125 0,0.410156 0.328125,0.7031249 0.6914063,0.7031249 0.4101562,0 0.703125,-0.3281249 0.703125,-0.7031249 z m 0,0"
         style="fill:#000000;fill-opacity:1;fill-rule:nonzero;stroke:none" />
      <path
         id="path4"
         d="m 5.0481563,-7.0194766 c -0.5507813,0.09375 -0.75,0.515625 -0.75,0.84375 0,0.4101563 0.328125,0.5507813 0.5625,0.5507813 0.515625,0 0.8789062,-0.4570313 0.8789062,-0.9140625 0,-0.7265625 -0.8203125,-1.0546875 -1.546875,-1.0546875 -1.0546875,0 -1.640625,1.03125 -1.7929687,1.359375 -0.3984375,-1.2890625 -1.4648438,-1.359375 -1.7695313,-1.359375 -1.7578125,0 -2.6835937,2.2617187 -2.6835937,2.6367187 0,0.070312 0.058594,0.1523438 0.1875,0.1523438 0.140625,0 0.1640625,-0.1054688 0.1992187,-0.1757813 0.5859375,-1.9101562 1.74609375,-2.2617187 2.23828125,-2.2617187 0.77343755,0 0.93750005,0.7148437 0.93750005,1.1367187 0,0.375 -0.1054688,0.7734375 -0.3164063,1.59375 L 0.60675,-2.1561953 c -0.2578125,1.0429687 -0.75,1.98046874 -1.6640625,1.98046874 -0.09375,0 -0.515625,0 -0.8789062,-0.22265625 C -1.315125,-0.51557031 -1.1745,-1.0311953 -1.1745,-1.2421328 c 0,-0.3398438 -0.2695312,-0.5507813 -0.5859375,-0.5507813 -0.421875,0 -0.8671875,0.3632813 -0.8671875,0.91406254 0,0.7265625 0.8085938,1.0546875 1.546875,1.0546875 0.83203125,0 1.41796875,-0.65625 1.78125,-1.35937504 0.26953125,1.00781254 1.1367188,1.35937504 1.7695313,1.35937504 1.7578125,0 2.6835937,-2.26171874 2.6835937,-2.63671874 0,-0.082031 -0.070312,-0.1523438 -0.1757812,-0.1523438 -0.1523438,0 -0.1640625,0.082031 -0.2226563,0.2226563 -0.4570312,1.51171874 -1.4648437,2.21484374 -2.2382812,2.21484374 -0.5976563,0 -0.9257813,-0.4453125 -0.9257813,-1.14843754 0,-0.375 0.070312,-0.65625 0.3398438,-1.7929687 l 0.609375,-2.34375 c 0.2578125,-1.03125 0.84375,-1.78125 1.6289062,-1.78125 0.035156,0 0.515625,0 0.8789063,0.2226562 z m 0,0"
         style="fill:#000000;fill-opacity:1;fill-rule:nonzero;stroke:none" />
      <path
         id="path5"
         d="m 22.330383,-5.5311953 c 0.257812,0 0.515625,0 0.515625,-0.2929688 0,-0.3046875 -0.292969,-0.3046875 -0.585938,-0.3046875 h -9.621093 c -0.292969,0 -0.585938,0 -0.585938,0.3046875 0,0.2929688 0.257813,0.2929688 0.515625,0.2929688 z m -0.07031,3.0703125 c 0.292969,0 0.585938,0 0.585938,-0.3164063 0,-0.28125 -0.257813,-0.28125 -0.515625,-0.28125 h -9.761719 c -0.257812,0 -0.515625,0 -0.515625,0.28125 0,0.3164063 0.292969,0.3164063 0.585938,0.3164063 z m 0,0"
         style="fill:#000000;fill-opacity:1;fill-rule:nonzero;stroke:none" />
      <path
         id="path6"
         d="m 31.362609,-1.9101016 c -0.609375,1.01953129 -1.195312,1.35937504 -2.015625,1.40625004 -0.1875,0.0234375 -0.328125,0.0234375 -0.328125,0.328125 0,0.10546875 0.08203,0.1757812475 0.210938,0.1757812475 0.304687,0 1.078125,-0.0351562475 1.394531,-0.0351562475 0.492188,0 1.042969,0.0351562475 1.523438,0.0351562475 0.105468,0 0.316406,0 0.316406,-0.3281249975 0,-0.15234375 -0.140625,-0.17578125 -0.246094,-0.17578125 -0.398437,-0.0351563 -0.726562,-0.1640625 -0.726562,-0.58593754 0,-0.234375 0.105468,-0.421875 0.328125,-0.8085937 l 1.3125,-2.1679688 h 4.394531 c 0.01172,0.1640625 0.01172,0.2929688 0.03516,0.4570313 0.04687,0.4453125 0.257813,2.2265625 0.257813,2.5546875 0,0.51562499 -0.878907,0.55078124 -1.160157,0.55078124 -0.1875,0 -0.375,0 -0.375,0.31640625 0,0.1874999975 0.152344,0.1874999975 0.257813,0.1874999975 0.292969,0 0.632812,-0.0351562475 0.925781,-0.0351562475 h 0.984375 c 1.054688,0 1.804688,0.0351562475 1.828125,0.0351562475 0.117188,0 0.304688,0 0.304688,-0.3281249975 0,-0.17578125 -0.152344,-0.17578125 -0.410157,-0.17578125 -0.949218,0 -0.960937,-0.15234375 -1.019531,-0.66796874 L 38.112609,-11.917914 c -0.03516,-0.339844 -0.105468,-0.375 -0.292968,-0.375 -0.175782,0 -0.28125,0.03516 -0.433594,0.292969 z m 2.0625,-2.6484375 3.457032,-5.7890629 0.585937,5.7890629 z m 15.799805,-2.4609375 c -0.550781,0.09375 -0.75,0.515625 -0.75,0.84375 0,0.4101563 0.328125,0.5507813 0.5625,0.5507813 0.515625,0 0.878906,-0.4570313 0.878906,-0.9140625 0,-0.7265625 -0.820312,-1.0546875 -1.546875,-1.0546875 -1.054687,0 -1.640625,1.03125 -1.792968,1.359375 -0.398438,-1.2890625 -1.464844,-1.359375 -1.769532,-1.359375 -1.757812,0 -2.683593,2.2617187 -2.683593,2.6367187 0,0.070312 0.05859,0.1523438 0.1875,0.1523438 0.140625,0 0.164062,-0.1054688 0.199218,-0.1757813 0.585938,-1.9101562 1.746094,-2.2617187 2.238282,-2.2617187 0.773437,0 0.9375,0.7148437 0.9375,1.1367187 0,0.375 -0.105469,0.7734375 -0.316407,1.59375 l -0.585937,2.3554688 c -0.257813,1.0429687 -0.75,1.98046874 -1.664063,1.98046874 -0.09375,0 -0.515625,0 -0.878906,-0.22265625 0.621094,-0.1171875 0.761719,-0.63281249 0.761719,-0.84374999 0,-0.3398438 -0.269531,-0.5507813 -0.585938,-0.5507813 -0.421875,0 -0.867187,0.3632813 -0.867187,0.91406254 0,0.7265625 0.808594,1.0546875 1.546875,1.0546875 0.832031,0 1.417969,-0.65625 1.78125,-1.35937504 0.269531,1.00781254 1.136719,1.35937504 1.769531,1.35937504 1.757813,0 2.683594,-2.26171874 2.683594,-2.63671874 0,-0.082031 -0.07031,-0.1523438 -0.175781,-0.1523438 -0.152344,0 -0.164063,0.082031 -0.222657,0.2226563 -0.457031,1.51171874 -1.464843,2.21484374 -2.238281,2.21484374 -0.597656,0 -0.925781,-0.4453125 -0.925781,-1.14843754 0,-0.375 0.07031,-0.65625 0.339844,-1.7929687 l 0.609375,-2.34375 c 0.257812,-1.03125 0.84375,-1.78125 1.628906,-1.78125 0.03516,0 0.515625,0 0.878906,0.2226562 z m 0,0"
         style="fill:#000000;fill-opacity:1;fill-rule:nonzero;stroke:none" />
      <path
         id="path7"
         d="m 60.961242,-3.9960391 h 4.558594 c 0.246094,0 0.539062,0 0.539062,-0.2929687 0,-0.3046875 -0.28125,-0.3046875 -0.539062,-0.3046875 h -4.558594 v -4.5703125 c 0,-0.234375 0,-0.5273438 -0.292969,-0.5273438 -0.316406,0 -0.316406,0.2695313 -0.316406,0.5273438 v 4.5703125 h -4.558594 c -0.234375,0 -0.527343,0 -0.527343,0.2929687 0,0.3046875 0.269531,0.3046875 0.527343,0.3046875 h 4.558594 v 4.55859379 c 0,0.24609375 0,0.53906251 0.292969,0.53906251 0.316406,0 0.316406,-0.26953126 0.316406,-0.53906251 z m 0,0"
         style="fill:#000000;fill-opacity:1;fill-rule:nonzero;stroke:none" />
      <path
         id="path8"
         d="m 76.986633,-10.581977 c 0.152344,-0.644531 0.222656,-0.679687 0.890625,-0.679687 h 2.238281 c 1.945313,0 1.945313,1.6523437 1.945313,1.8164062 0,1.3945312 -1.394532,3.1640625 -3.667969,3.1640625 h -2.472656 z m 2.90625,4.4414067 c 1.875,-0.3515625 3.574219,-1.6523438 3.574219,-3.2460938 0,-1.3359379 -1.183594,-2.3671879 -3.128907,-2.3671879 h -5.519531 c -0.328125,0 -0.492187,0 -0.492187,0.328125 0,0.164063 0.164062,0.164063 0.421875,0.164063 1.042968,0 1.042968,0.140625 1.042968,0.328125 0,0.03516 0,0.140625 -0.07031,0.398437 l -2.320313,9.2578129 c -0.152343,0.60937504 -0.1875,0.77343754 -1.394531,0.77343754 -0.328125,0 -0.492187,0 -0.492187,0.31640625 0,0.1874999975 0.09375,0.1874999975 0.445312,0.1874999975 h 5.90625 c 2.625,0 4.664063,-1.9921874875 4.664063,-3.7382812875 0,-1.40625 -1.242188,-2.2734375 -2.636719,-2.4023437 z m -2.449219,5.63671874 h -2.320312 c -0.246094,0 -0.28125,0 -0.375,-0.0117188 -0.1875,-0.0234375 -0.210938,-0.046875 -0.210938,-0.1875 0,-0.12890625 0.03516,-0.22265625 0.07031,-0.38671884 l 1.207031,-4.8515624 h 3.234375 c 2.027344,0 2.027344,1.8984375 2.027344,2.0390625 0,1.6523437 -1.5,3.39843749 -3.632813,3.39843749 z m 12.793945,-0.4921875 c 0.222657,0.9609375 1.054688,1.171875 1.464844,1.171875 0.550781,0 0.960938,-0.36328125 1.242188,-0.94921875 0.292968,-0.62109379 0.515625,-1.64062499 0.515625,-1.68749999 0,-0.082031 -0.07031,-0.1523438 -0.175782,-0.1523438 -0.152343,0 -0.175781,0.082031 -0.246093,0.3398438 -0.304688,1.1835937 -0.621094,2.09765624 -1.300782,2.09765624 -0.515625,0 -0.515625,-0.5625 -0.515625,-0.78515625 0,-0.39843749 0.04687,-0.57421879 0.222657,-1.28906249 0.117187,-0.46875 0.234375,-0.9375 0.339843,-1.4179688 l 0.703125,-2.8007812 c 0.128907,-0.4335938 0.128907,-0.46875 0.128907,-0.515625 0,-0.2578125 -0.210938,-0.4335938 -0.46875,-0.4335938 -0.503907,0 -0.621094,0.4335938 -0.726563,0.8554688 -0.164062,0.6796875 -1.101562,4.3710937 -1.21875,4.9804687 -0.01172,0 -0.691406,1.40625004 -1.945312,1.40625004 -0.890625,0 -1.066407,-0.7734375 -1.066407,-1.40625004 0,-0.984375 0.480469,-2.3554687 0.925782,-3.515625 0.210937,-0.5507812 0.292968,-0.7734375 0.292968,-1.1132812 0,-0.7382813 -0.527343,-1.3828125 -1.359375,-1.3828125 -1.582031,0 -2.214843,2.4960937 -2.214843,2.6367187 0,0.070312 0.07031,0.1523438 0.1875,0.1523438 0.152343,0 0.175781,-0.070312 0.234375,-0.3046875 0.421875,-1.4882813 1.089843,-2.1328125 1.746093,-2.1328125 0.164063,0 0.445313,0.011719 0.445313,0.5625 0,0.4453125 -0.1875,0.9492187 -0.445313,1.6054687 -0.761718,2.0390625 -0.84375,2.6953125 -0.84375,3.2109375 0,1.75781254 1.324219,2.03906254 2.027344,2.03906254 1.101563,0 1.710938,-0.76171875 2.050781,-1.171875 z M 1.4153438,23.85357 c -0.4570313,0.644532 -1.1367188,1.230469 -1.9804688,1.230469 -0.19921875,0 -1.03125,-0.03516 -1.2890625,-0.820312 0.058594,0.01172 0.140625,0.01172 0.1757813,0.01172 0.515625,0 0.8554687,-0.445312 0.8554687,-0.84375 0,-0.398437 -0.328125,-0.527343 -0.5859375,-0.527343 -0.2695312,0 -0.8671875,0.199218 -0.8671875,1.042968 0,0.878907 0.7382813,1.488282 1.7109375,1.488282 1.7226563,0 3.46875,-1.582032 3.9492188,-3.503907 l 1.6875,-6.703125 c 0.011719,-0.09375 0.046875,-0.199218 0.046875,-0.292968 0,-0.257813 -0.1992188,-0.433594 -0.4570313,-0.433594 -0.1640625,0 -0.5273437,0.07031 -0.65625,0.585937 l -1.2773437,5.0625 c -0.082031,0.304688 -0.082031,0.339844 -0.2226563,0.527344 -0.3398437,0.480469 -0.9140625,1.066406 -1.734375,1.066406 -0.97265625,0 -1.0546875,-0.9375 -1.0546875,-1.40625 0,-0.984375 0.46875,-2.308593 0.92578125,-3.550781 0.1875,-0.492187 0.29296875,-0.738281 0.29296875,-1.078125 0,-0.726562 -0.515625,-1.382812 -1.359375,-1.382812 -1.5820312,0 -2.2148437,2.496093 -2.2148437,2.636718 0,0.07031 0.070312,0.152344 0.1875,0.152344 0.1523437,0 0.1757812,-0.07031 0.234375,-0.304687 0.421875,-1.453125 1.0664062,-2.132813 1.7460937,-2.132813 0.15234375,0 0.4453125,0 0.4453125,0.5625 0,0.445313 -0.1875,0.949219 -0.4453125,1.605469 -0.84375,2.25 -0.84375,2.824219 -0.84375,3.234375 0,1.628906 1.171875,2.015625 2.02734375,2.015625 0.50390625,0 1.12500005,-0.164063 1.72265625,-0.796875 l 0.011719,0.02344 c -0.2578125,1.007813 -0.421875,1.6875 -1.03125,2.53125 z m 0,0"
         style="fill:#000000;fill-opacity:1;fill-rule:nonzero;stroke:none" />
      <path
         id="path9"
         d="m 21.589172,16.388727 c 0.257812,0 0.515625,0 0.515625,-0.292969 0,-0.304688 -0.292969,-0.304688 -0.585938,-0.304688 h -9.621093 c -0.292969,0 -0.585938,0 -0.585938,0.304688 0,0.292969 0.257813,0.292969 0.515625,0.292969 z m -0.07031,3.070312 c 0.292969,0 0.585938,0 0.585938,-0.316406 0,-0.28125 -0.257813,-0.28125 -0.515625,-0.28125 h -9.761719 c -0.257812,0 -0.515625,0 -0.515625,0.28125 0,0.316406 0.292969,0.316406 0.585938,0.316406 z m 0,0"
         style="fill:#000000;fill-opacity:1;fill-rule:nonzero;stroke:none" />
      <path
         id="path10"
         d="m 40.54718,9.9551328 c 0,-0.1523437 -0.117188,-0.1523437 -0.152344,-0.1523437 -0.03516,0 -0.105469,0 -0.234375,0.1757812 l -1.195313,1.4414067 c -0.597656,-1.03125 -1.546875,-1.6171879 -2.835937,-1.6171879 -3.714844,0 -7.582031,3.7734379 -7.582031,7.8164059 0,2.871094 2.015625,4.664063 4.535156,4.664063 1.371094,0 2.578125,-0.585938 3.574219,-1.429688 1.5,-1.253906 1.945312,-2.929687 1.945312,-3.070312 0,-0.152344 -0.128906,-0.152344 -0.1875,-0.152344 -0.152344,0 -0.175781,0.105469 -0.199219,0.175781 -0.796875,2.683594 -3.117187,3.972657 -4.839843,3.972657 -1.828125,0 -3.410157,-1.171875 -3.410157,-3.609375 0,-0.550782 0.175782,-3.550782 2.121094,-5.800782 0.9375,-1.101562 2.554688,-2.074218 4.195313,-2.074218 1.898437,0 2.742187,1.570312 2.742187,3.328125 0,0.445312 -0.05859,0.820312 -0.05859,0.890625 0,0.164062 0.175782,0.164062 0.222657,0.164062 0.1875,0 0.210937,-0.02344 0.28125,-0.328125 z m 8.583984,4.9453122 c -0.550781,0.09375 -0.75,0.515625 -0.75,0.84375 0,0.410157 0.328125,0.550782 0.5625,0.550782 0.515625,0 0.878906,-0.457032 0.878906,-0.914063 0,-0.726562 -0.820312,-1.054687 -1.546875,-1.054687 -1.054687,0 -1.640625,1.03125 -1.792968,1.359375 -0.398438,-1.289063 -1.464844,-1.359375 -1.769532,-1.359375 -1.757812,0 -2.683593,2.261718 -2.683593,2.636718 0,0.07031 0.05859,0.152344 0.1875,0.152344 0.140625,0 0.164062,-0.105469 0.199218,-0.175781 0.585938,-1.910156 1.746094,-2.261719 2.238282,-2.261719 0.773437,0 0.9375,0.714844 0.9375,1.136719 0,0.375 -0.105469,0.773437 -0.316407,1.59375 l -0.585937,2.355469 c -0.257813,1.042968 -0.75,1.980468 -1.664063,1.980468 -0.09375,0 -0.515625,0 -0.878906,-0.222656 0.621094,-0.117187 0.761719,-0.632812 0.761719,-0.84375 0,-0.339844 -0.269531,-0.550781 -0.585938,-0.550781 -0.421875,0 -0.867187,0.363281 -0.867187,0.914062 0,0.726563 0.808594,1.054688 1.546875,1.054688 0.832031,0 1.417969,-0.65625 1.78125,-1.359375 0.269531,1.007812 1.136719,1.359375 1.769531,1.359375 1.757813,0 2.683594,-2.261719 2.683594,-2.636719 0,-0.08203 -0.07031,-0.152344 -0.175781,-0.152344 -0.152344,0 -0.164063,0.08203 -0.222657,0.222657 -0.457031,1.511718 -1.464843,2.214843 -2.238281,2.214843 -0.597656,0 -0.925781,-0.445312 -0.925781,-1.148437 0,-0.375 0.07031,-0.65625 0.339844,-1.792969 l 0.609375,-2.34375 c 0.257812,-1.03125 0.84375,-1.78125 1.628906,-1.78125 0.03516,0 0.515625,0 0.878906,0.222656 z m 0,0"
         style="fill:#000000;fill-opacity:1;fill-rule:nonzero;stroke:none" />
      <path
         id="path11"
         d="m 60.88507,17.923883 h 4.558594 c 0.246094,0 0.539063,0 0.539063,-0.292969 0,-0.304687 -0.28125,-0.304687 -0.539063,-0.304687 H 60.88507 v -4.570313 c 0,-0.234375 0,-0.527344 -0.292968,-0.527344 -0.316407,0 -0.316407,0.269532 -0.316407,0.527344 v 4.570313 h -4.558593 c -0.234375,0 -0.527344,0 -0.527344,0.292968 0,0.304688 0.269531,0.304688 0.527344,0.304688 h 4.558593 v 4.558594 c 0,0.246093 0,0.539062 0.292969,0.539062 0.316406,0 0.316406,-0.269531 0.316406,-0.539062 z m 0,0"
         style="fill:#000000;fill-opacity:1;fill-rule:nonzero;stroke:none" />
      <path
         id="path12"
         d="m 73.312805,20.642633 c -0.164063,0.609375 -0.199219,0.773437 -1.394532,0.773437 -0.328125,0 -0.503906,0 -0.503906,0.316407 0,0.1875 0.105469,0.1875 0.445313,0.1875 h 5.460937 c 3.480469,0 6.867188,-3.597657 6.867188,-7.441407 0,-2.472656 -1.476563,-4.3125 -3.9375,-4.3125 h -5.53125 c -0.328125,0 -0.480469,0 -0.480469,0.328125 0,0.164063 0.152344,0.164063 0.410156,0.164063 1.054688,0 1.054688,0.140625 1.054688,0.328125 0,0.03516 0,0.140625 -0.07031,0.398437 z m 3.632812,-9.304688 c 0.152344,-0.644531 0.222656,-0.679687 0.890625,-0.679687 h 1.898438 c 1.617187,0 3.09375,0.878906 3.09375,3.257812 0,0.855469 -0.339844,3.855469 -2.015625,5.753907 -0.480469,0.5625 -1.792969,1.746093 -3.773438,1.746093 h -1.957031 c -0.246094,0 -0.28125,0 -0.375,-0.01172 -0.199219,-0.02344 -0.210938,-0.04687 -0.210938,-0.1875 0,-0.128907 0.03516,-0.222657 0.07031,-0.386719 z m 13.992188,9.585938 c 0.222656,0.960937 1.054687,1.171875 1.464843,1.171875 0.550782,0 0.960938,-0.363281 1.242188,-0.949219 0.292969,-0.621094 0.515625,-1.640625 0.515625,-1.6875 0,-0.08203 -0.07031,-0.152344 -0.175781,-0.152344 -0.152344,0 -0.175782,0.08203 -0.246094,0.339844 -0.304688,1.183594 -0.621094,2.097656 -1.300781,2.097656 -0.515625,0 -0.515625,-0.5625 -0.515625,-0.785156 0,-0.398437 0.04687,-0.574219 0.222656,-1.289062 0.117187,-0.46875 0.234375,-0.9375 0.339844,-1.417969 l 0.703125,-2.800781 c 0.128906,-0.433594 0.128906,-0.46875 0.128906,-0.515625 0,-0.257813 -0.210938,-0.433594 -0.46875,-0.433594 -0.503906,0 -0.621094,0.433594 -0.726563,0.855469 -0.164062,0.679687 -1.101562,4.371093 -1.21875,4.980468 -0.01172,0 -0.691406,1.40625 -1.945312,1.40625 -0.890625,0 -1.066406,-0.773437 -1.066406,-1.40625 0,-0.984375 0.480468,-2.355468 0.925781,-3.515625 0.210937,-0.550781 0.292969,-0.773437 0.292969,-1.113281 0,-0.738281 -0.527344,-1.382812 -1.359375,-1.382812 -1.582032,0 -2.214844,2.496093 -2.214844,2.636718 0,0.07031 0.07031,0.152344 0.1875,0.152344 0.152344,0 0.175781,-0.07031 0.234375,-0.304687 0.421875,-1.488282 1.089844,-2.132813 1.746094,-2.132813 0.164062,0 0.445312,0.01172 0.445312,0.5625 0,0.445313 -0.1875,0.949219 -0.445312,1.605469 -0.761719,2.039062 -0.84375,2.695312 -0.84375,3.210937 0,1.757813 1.324218,2.039063 2.027343,2.039063 1.101563,0 1.710938,-0.761719 2.050782,-1.171875 z m 0,0"
         style="fill:#000000;fill-opacity:1;fill-rule:nonzero;stroke:none" />
    </g>
    <path
       id="path13"
       d="m 127.56062,28.3468 h 28.34682 22.60826"
       style="fill:none;stroke:#000000;stroke-width:1.19553;stroke-linecap:butt;stroke-linejoin:miter;stroke-miterlimit:10;stroke-dasharray:none;stroke-opacity:1"
       transform="matrix(1.3333333,0,0,-1.3333333,168.64667,177.51733)" />
    <path
       id="path14"
       d="M 5.73854,0 C 4.0382,0.31879 1.27522,1.27522 -0.6376,2.39105 v -4.7821 C 1.27522,-1.27522 4.0382,-0.31879 5.73854,0"
       style="fill:#000000;fill-opacity:1;fill-rule:nonzero;stroke:none"
       transform="matrix(1.3333333,0,0,-1.3333333,406.6676,139.7216)" />
    <path
       id="path15"
       d="m 8.1548594,-7.0204609 c -0.5507813,0.09375 -0.75,0.515625 -0.75,0.84375 0,0.4101562 0.328125,0.5507812 0.5625,0.5507812 0.515625,0 0.8789062,-0.4570312 0.8789062,-0.9140625 0,-0.7265625 -0.8203125,-1.0546875 -1.546875,-1.0546875 -1.0546875,0 -1.640625,1.03125 -1.7929687,1.359375 -0.3984375,-1.2890625 -1.4648438,-1.359375 -1.7695313,-1.359375 -1.7578125,0 -2.6835937,2.2617188 -2.6835937,2.6367188 0,0.070312 0.058594,0.1523437 0.1875,0.1523437 0.140625,0 0.1640625,-0.1054687 0.1992187,-0.1757812 0.5859375,-1.9101563 1.7460938,-2.2617188 2.2382813,-2.2617188 0.7734375,0 0.9375,0.7148438 0.9375,1.1367188 0,0.375 -0.1054688,0.7734375 -0.3164063,1.59375 l -0.5859375,2.3554687 c -0.2578125,1.0429688 -0.75,1.98046876 -1.6640625,1.98046876 -0.09375,0 -0.515625,0 -0.8789062,-0.22265625 0.6210937,-0.1171875 0.7617187,-0.63281251 0.7617187,-0.84375001 0,-0.3398437 -0.2695312,-0.5507812 -0.5859375,-0.5507812 -0.42187497,0 -0.86718747,0.3632812 -0.86718747,0.91406246 0,0.7265625 0.80859377,1.0546875 1.54687497,1.0546875 0.8320313,0 1.4179688,-0.65625 1.78125,-1.35937496 0.2695313,1.00781246 1.1367188,1.35937496 1.7695313,1.35937496 1.7578125,0 2.6835937,-2.26171876 2.6835937,-2.63671876 0,-0.082031 -0.070312,-0.1523437 -0.1757812,-0.1523437 -0.1523438,0 -0.1640625,0.082031 -0.2226563,0.2226562 -0.4570312,1.51171876 -1.4648437,2.21484376 -2.2382812,2.21484376 -0.5976563,0 -0.9257813,-0.4453125 -0.9257813,-1.14843746 0,-0.375 0.070312,-0.65625 0.3398438,-1.7929688 l 0.609375,-2.34375 c 0.2578125,-1.03125 0.84375,-1.78125 1.6289062,-1.78125 0.035156,0 0.515625,0 0.8789063,0.2226563 z m 0,0"
       style="fill:#000000;fill-opacity:1;fill-rule:nonzero;stroke:none"
       aria-label="x"
       transform="matrix(1.3333333,0,0,1.3333333,370.13467,134.49733)" />
    <path
       id="path16"
       d="m 42.5202,28.3468 c 0,7.82785 -6.34555,14.1734 -14.1734,14.1734 -7.82785,0 -14.1734,-6.34555 -14.1734,-14.1734 0,-7.82785 6.34555,-14.1734 14.1734,-14.1734 7.82785,0 14.1734,6.34555 14.1734,14.1734 z"
       style="fill:none;stroke:#000000;stroke-width:1.19553;stroke-linecap:butt;stroke-linejoin:miter;stroke-miterlimit:10;stroke-dasharray:none;stroke-opacity:1"
       transform="matrix(1.3333333,0,0,-1.3333333,168.64667,177.51733)" />
    <path
       id="path17"
       d="M 42.5202,28.3468 H 65.12846"
       style="fill:none;stroke:#000000;stroke-width:1.19553;stroke-linecap:butt;stroke-linejoin:miter;stroke-miterlimit:10;stroke-dasharray:none;stroke-opacity:1"
       transform="matrix(1.3333333,0,0,-1.3333333,168.64667,177.51733)" />
    <path
       id="path18"
       d="M 5.73854,0 C 4.0382,0.31879 1.27522,1.27522 -0.6376,2.39105 v -4.7821 C 1.27522,-1.27522 4.0382,-0.31879 5.73854,0"
       style="fill:#000000;fill-opacity:1;fill-rule:nonzero;stroke:none"
       transform="matrix(1.3333333,0,0,-1.3333333,255.48461,139.7216)" />
    <g
       id="g18"
       aria-label="˙&#10;x"
       transform="matrix(1.3333333,0,0,1.3333333,241.996,134.496)">
      <path
         id="path19"
         d="m 2.8360078,-10.605398 c 0,-0.410157 -0.328125,-0.703125 -0.6796875,-0.703125 -0.421875,0 -0.7148437,0.328125 -0.7148437,0.703125 0,0.410156 0.328125,0.7031246 0.6914062,0.7031246 0.4101563,0 0.703125,-0.3281246 0.703125,-0.7031246 z m 0,0"
         style="fill:#000000;fill-opacity:1;fill-rule:nonzero;stroke:none" />
      <path
         id="path20"
         d="m 5.0479219,-7.0194609 c -0.5507813,0.09375 -0.75,0.515625 -0.75,0.84375 0,0.4101562 0.328125,0.5507812 0.5625,0.5507812 0.515625,0 0.8789062,-0.4570312 0.8789062,-0.9140625 0,-0.7265625 -0.8203125,-1.0546875 -1.546875,-1.0546875 -1.0546875,0 -1.640625,1.03125 -1.7929687,1.359375 -0.3984375,-1.2890625 -1.46484377,-1.359375 -1.76953127,-1.359375 -1.75781253,0 -2.68359373,2.2617188 -2.68359373,2.6367188 0,0.070312 0.058594,0.1523437 0.1875,0.1523437 0.140625,0 0.1640625,-0.1054687 0.1992187,-0.1757812 0.5859375,-1.9101563 1.74609378,-2.2617188 2.23828128,-2.2617188 0.77343752,0 0.93750002,0.7148438 0.93750002,1.1367188 0,0.375 -0.1054688,0.7734375 -0.3164063,1.59375 l -0.58593747,2.3554687 c -0.2578125,1.0429688 -0.75,1.98046876 -1.66406253,1.98046876 -0.09375,0 -0.515625,0 -0.8789062,-0.22265625 0.6210937,-0.1171875 0.7617187,-0.63281251 0.7617187,-0.84375001 0,-0.3398437 -0.2695312,-0.5507812 -0.5859375,-0.5507812 -0.421875,0 -0.8671875,0.3632812 -0.8671875,0.91406246 0,0.7265625 0.8085938,1.0546875 1.546875,1.0546875 0.83203128,0 1.41796878,-0.65625 1.78125003,-1.35937496 0.26953125,1.00781246 1.13671877,1.35937496 1.76953127,1.35937496 1.7578125,0 2.6835937,-2.26171876 2.6835937,-2.63671876 0,-0.082031 -0.070312,-0.1523437 -0.1757812,-0.1523437 -0.1523438,0 -0.1640625,0.082031 -0.2226563,0.2226562 -0.4570312,1.51171876 -1.4648437,2.21484376 -2.2382812,2.21484376 -0.5976563,0 -0.9257813,-0.4453125 -0.9257813,-1.14843746 0,-0.375 0.070312,-0.65625 0.3398438,-1.7929688 l 0.609375,-2.34375 c 0.2578125,-1.03125 0.84375,-1.78125 1.6289062,-1.78125 0.035156,0 0.515625,0 0.8789063,0.2226563 z m 0,0"
         style="fill:#000000;fill-opacity:1;fill-rule:nonzero;stroke:none" />
    </g>
    <path
       id="path21"
       d="m 70.867,-70.867 v 56.69361 h 56.69362 V -70.867 Z"
       style="fill:none;stroke:#000000;stroke-width:1.19553;stroke-linecap:butt;stroke-linejoin:miter;stroke-miterlimit:10;stroke-dasharray:none;stroke-opacity:1"
       transform="matrix(1.3333333,0,0,-1.3333333,168.64667,177.51733)" />
    <path
       id="path22"
       d="m 2.9286172,-1.9110703 c -0.609375,1.01953124 -1.1953125,1.35937499 -2.01562501,1.40624999 -0.1875,0.0234375 -0.328125,0.0234375 -0.328125,0.328125 0,0.10546875 0.0820313,0.1757812475 0.2109375,0.1757812475 0.30468751,0 1.07812501,-0.0351562475 1.39453121,-0.0351562475 0.4921875,0 1.0429688,0.0351562475 1.5234375,0.0351562475 0.1054688,0 0.3164063,0 0.3164063,-0.3281249975 0,-0.15234375 -0.140625,-0.17578125 -0.2460938,-0.17578125 -0.3984375,-0.0351563 -0.7265625,-0.1640625 -0.7265625,-0.58593749 0,-0.234375 0.1054688,-0.421875 0.328125,-0.8085938 l 1.3125,-2.1679687 h 4.3945313 c 0.011719,0.1640625 0.011719,0.2929687 0.035156,0.4570312 0.046875,0.4453125 0.2578125,2.2265625 0.2578125,2.5546875 0,0.51562504 -0.8789062,0.55078129 -1.1601562,0.55078129 -0.1875,0 -0.375,0 -0.375,0.31640625 0,0.1874999975 0.1523437,0.1874999975 0.2578125,0.1874999975 0.2929687,0 0.6328125,-0.0351562475 0.9257812,-0.0351562475 h 0.9843753 c 1.054687,0 1.804687,0.0351562475 1.828125,0.0351562475 0.117187,0 0.304687,0 0.304687,-0.3281249975 0,-0.17578125 -0.152343,-0.17578125 -0.410156,-0.17578125 -0.949219,0 -0.960937,-0.15234375 -1.019531,-0.66796879 L 9.6786172,-11.918883 c -0.035156,-0.339844 -0.1054688,-0.375 -0.2929688,-0.375 -0.1757812,0 -0.28125,0.03516 -0.4335937,0.292969 z m 2.0625,-2.6484375 3.4570312,-5.7890622 0.5859375,5.7890622 z m 0,0"
       style="fill:#000000;fill-opacity:1;fill-rule:nonzero;stroke:none"
       aria-label="A"
       transform="matrix(1.3333333,0,0,1.3333333,292.50533,242.052)" />
    <path
       id="path23"
       d="m 155.90744,28.3468 v -70.867 h -22.60826"
       style="fill:none;stroke:#000000;stroke-width:1.19553;stroke-linecap:butt;stroke-linejoin:miter;stroke-miterlimit:10;stroke-dasharray:none;stroke-opacity:1"
       transform="matrix(1.3333333,0,0,-1.3333333,168.64667,177.51733)" />
    <path
       id="path24"
       d="M 5.73854,0 C 4.0382,0.31879 1.27522,1.27522 -0.6376,2.39105 v -4.7821 C 1.27522,-1.27522 4.0382,-0.31879 5.73854,0"
       style="fill:#000000;fill-opacity:1;fill-rule:nonzero;stroke:none"
       transform="matrix(-1.3333333,0,0,1.3333333,346.37891,234.21093)" />
    <path
       id="path25"
       d="M 70.867,-42.5202 H 28.3468 V 8.43486"
       style="fill:none;stroke:#000000;stroke-width:1.19553;stroke-linecap:butt;stroke-linejoin:miter;stroke-miterlimit:10;stroke-dasharray:none;stroke-opacity:1"
       transform="matrix(1.3333333,0,0,-1.3333333,168.64667,177.51733)" />
    <path
       id="path26"
       d="M 5.73854,0 C 4.0382,0.31879 1.27522,1.27522 -0.6376,2.39105 v -4.7821 C 1.27522,-1.27522 4.0382,-0.31879 5.73854,0"
       style="fill:#000000;fill-opacity:1;fill-rule:nonzero;stroke:none"
       transform="matrix(0,-1.3333333,-1.3333333,0,206.4424,166.27085)" />
    <path
       id="path27"
       d="m 6.4912344,-3.9960859 h 4.5585936 c 0.246094,0 0.539063,0 0.539063,-0.2929688 0,-0.3046875 -0.28125,-0.3046875 -0.539063,-0.3046875 H 6.4912344 v -4.5703125 c 0,-0.234375 0,-0.5273437 -0.2929688,-0.5273437 -0.3164062,0 -0.3164062,0.2695312 -0.3164062,0.5273437 v 4.5703125 H 1.3232656 c -0.234375,0 -0.52734372,0 -0.52734372,0.2929688 0,0.3046875 0.26953122,0.3046875 0.52734372,0.3046875 h 4.5585938 v 4.55859371 c 0,0.24609375 0,0.53906249 0.2929687,0.53906249 0.3164063,0 0.3164063,-0.26953124 0.3164063,-0.53906249 z m 0,0"
       style="fill:#000000;fill-opacity:1;fill-rule:nonzero;stroke:none"
       aria-label="+"
       transform="matrix(1.3333333,0,0,1.3333333,211.66533,176.77733)" />
    <path
       id="path28"
       d="m -70.867,0 v 56.69362 h 56.69361 V 0 Z"
       style="fill:none;stroke:#000000;stroke-width:1.19553;stroke-linecap:butt;stroke-linejoin:miter;stroke-miterlimit:10;stroke-dasharray:none;stroke-opacity:1"
       transform="matrix(1.3333333,0,0,-1.3333333,168.64667,177.51733)" />
    <path
       id="path29"
       d="m 6.3036406,-10.583156 c 0.1523438,-0.644531 0.2226563,-0.679688 0.890625,-0.679688 h 2.2382813 c 1.9453121,0 1.9453121,1.652344 1.9453121,1.8164065 0,1.3945313 -1.3945309,3.1640625 -3.6679684,3.1640625 H 5.2372344 Z m 2.90625,4.441406 c 1.8750004,-0.3515625 3.5742184,-1.6523437 3.5742184,-3.2460937 0,-1.3359373 -1.183593,-2.3671873 -3.1289059,-2.3671873 H 4.1356719 c -0.328125,0 -0.4921875,0 -0.4921875,0.328125 0,0.164062 0.1640625,0.164062 0.421875,0.164062 1.0429687,0 1.0429687,0.140625 1.0429687,0.328125 0,0.03516 0,0.140625 -0.070312,0.398438 l -2.3203125,9.2578123 c -0.1523437,0.60937495 -0.1875,0.77343745 -1.3945312,0.77343745 -0.32812503,0 -0.49218753,0 -0.49218753,0.31640625 0,0.1875 0.09375,0.1875 0.44531253,0.1875 h 5.90625 c 2.625,0 4.6640626,-1.9921875 4.6640626,-3.7382812 0,-1.40625 -1.242187,-2.2734375 -2.6367194,-2.4023438 z M 6.7606719,-0.50503125 H 4.4403594 c -0.2460938,0 -0.28125,0 -0.375,-0.0117188 -0.1875,-0.0234375 -0.2109375,-0.046875 -0.2109375,-0.1875 0,-0.12890625 0.035156,-0.22265625 0.070312,-0.38671865 l 1.2070312,-4.8515625 h 3.234375 c 2.0273429,0 2.0273429,1.8984375 2.0273429,2.0390624 0,1.6523438 -1.4999991,3.3984375 -3.6328111,3.39843755 z m 0,0"
       style="fill:#000000;fill-opacity:1;fill-rule:nonzero;stroke:none"
       aria-label="B"
       transform="matrix(1.3333333,0,0,1.3333333,102.83733,147.564)" />
    <path
       id="path30"
       d="M -14.17339,28.3468 H 8.43486"
       style="fill:none;stroke:#000000;stroke-width:1.19553;stroke-linecap:butt;stroke-linejoin:miter;stroke-miterlimit:10;stroke-dasharray:none;stroke-opacity:1"
       transform="matrix(1.3333333,0,0,-1.3333333,168.64667,177.51733)" />
    <path
       id="path31"
       d="M 5.73854,0 C 4.0382,0.31879 1.27522,1.27522 -0.6376,2.39105 v -4.7821 C 1.27522,-1.27522 4.0382,-0.31879 5.73854,0"
       style="fill:#000000;fill-opacity:1;fill-rule:nonzero;stroke:none"
       transform="matrix(1.3333333,0,0,-1.3333333,179.89315,139.7216)" />
    <path
       id="path32"
       d="m 6.4928438,-3.9967969 h 4.5585942 c 0.246093,0 0.539062,0 0.539062,-0.2929687 0,-0.3046875 -0.28125,-0.3046875 -0.539062,-0.3046875 H 6.4928438 v -4.5703125 c 0,-0.234375 0,-0.5273438 -0.2929688,-0.5273438 -0.3164062,0 -0.3164062,0.2695313 -0.3164062,0.5273438 v 4.5703125 H 1.324875 c -0.234375,0 -0.52734375,0 -0.52734375,0.2929687 0,0.3046875 0.26953125,0.3046875 0.52734375,0.3046875 h 4.5585938 v 4.55859378 c 0,0.24609375 0,0.53906252 0.2929687,0.53906252 0.3164063,0 0.3164063,-0.26953127 0.3164063,-0.53906252 z m 0,0"
       style="fill:#000000;fill-opacity:1;fill-rule:nonzero;stroke:none"
       aria-label="+"
       transform="matrix(1.3333333,0,0,1.3333333,165.796,133.04)" />
    <path
       id="path33"
       d="m -113.38724,28.3468 v 0 h 36.78166"
       style="fill:none;stroke:#000000;stroke-width:1.19553;stroke-linecap:butt;stroke-linejoin:miter;stroke-miterlimit:10;stroke-dasharray:none;stroke-opacity:1"
       transform="matrix(1.3333333,0,0,-1.3333333,168.64667,177.51733)" />
    <path
       id="path34"
       d="M 5.73854,0 C 4.0382,0.31879 1.27522,1.27522 -0.6376,2.39105 v -4.7821 C 1.27522,-1.27522 4.0382,-0.31879 5.73854,0"
       style="fill:#000000;fill-opacity:1;fill-rule:nonzero;stroke:none"
       transform="matrix(1.3333333,0,0,-1.3333333,66.505893,139.7216)" />
    <path
       id="path35"
       d="m 5.8718281,-0.99702344 c 0.2226563,0.9609375 1.0546875,1.171875 1.4648438,1.171875 0.5507812,0 0.9609375,-0.36328125 1.2421875,-0.94921875 0.2929687,-0.62109371 0.515625,-1.64062501 0.515625,-1.68750001 0,-0.082031 -0.070312,-0.1523437 -0.1757813,-0.1523437 -0.1523437,0 -0.1757812,0.082031 -0.2460937,0.3398437 -0.3046875,1.1835938 -0.6210938,2.09765626 -1.3007813,2.09765626 -0.515625,0 -0.515625,-0.5625 -0.515625,-0.78515625 0,-0.39843751 0.046875,-0.57421871 0.2226563,-1.28906251 0.1171875,-0.46875 0.234375,-0.9375 0.3398437,-1.4179687 l 0.703125,-2.8007813 c 0.1289063,-0.4335937 0.1289063,-0.46875 0.1289063,-0.515625 0,-0.2578125 -0.2109375,-0.4335937 -0.46875,-0.4335937 -0.5039063,0 -0.6210938,0.4335937 -0.7265625,0.8554687 -0.1640625,0.6796875 -1.1015625,4.3710938 -1.21875,4.9804688 -0.011719,0 -0.6914063,1.40624996 -1.9453125,1.40624996 -0.890625,0 -1.0664063,-0.7734375 -1.0664063,-1.40624996 0,-0.984375 0.4804688,-2.3554688 0.9257813,-3.515625 0.2109375,-0.5507813 0.2929687,-0.7734375 0.2929687,-1.1132813 0,-0.7382812 -0.5273437,-1.3828125 -1.359375,-1.3828125 -1.5820312,0 -2.21484372,2.4960938 -2.21484372,2.6367188 0,0.070312 0.0703125,0.1523437 0.1875,0.1523437 0.15234375,0 0.17578125,-0.070312 0.234375,-0.3046875 0.42187502,-1.4882812 1.08984372,-2.1328125 1.74609372,-2.1328125 0.1640625,0 0.4453125,0.011719 0.4453125,0.5625 0,0.4453125 -0.1875,0.9492188 -0.4453125,1.6054688 -0.7617187,2.0390625 -0.84375,2.6953125 -0.84375,3.2109375 0,1.75781246 1.3242188,2.03906246 2.0273438,2.03906246 1.1015625,0 1.7109375,-0.76171875 2.0507812,-1.171875 z m 0,0"
       style="fill:#000000;fill-opacity:1;fill-rule:nonzero;stroke:none"
       aria-label="u"
       transform="matrix(1.3333333,0,0,1.3333333,11.069333,134.49733)" />
    <path
       id="path36"
       d="m 184.25424,0 v 56.69362 h 56.69364 V 0 Z"
       style="fill:none;stroke:#000000;stroke-width:1.19553;stroke-linecap:butt;stroke-linejoin:miter;stroke-miterlimit:10;stroke-dasharray:none;stroke-opacity:1"
       transform="matrix(1.3333333,0,0,-1.3333333,168.64667,177.51733)" />
    <path
       id="path37"
       d="m 12.855039,-11.965969 c 0,-0.152343 -0.117187,-0.152343 -0.152344,-0.152343 -0.03516,0 -0.105468,0 -0.234375,0.175781 l -1.195312,1.441406 c -0.597656,-1.03125 -1.5468752,-1.617187 -2.8359377,-1.617187 -3.7148437,0 -7.58203124,3.773437 -7.58203124,7.8164058 0,2.8710937 2.01562504,4.66406245 4.53515624,4.66406245 1.3710938,0 2.578125,-0.5859375 3.5742188,-1.42968745 1.4999999,-1.2539063 1.9453129,-2.9296875 1.9453129,-3.0703125 0,-0.1523438 -0.128907,-0.1523438 -0.1875,-0.1523438 -0.152344,0 -0.175782,0.1054688 -0.199219,0.1757813 -0.7968752,2.6835937 -3.1171877,3.9726562 -4.8398439,3.9726562 -1.828125,0 -3.4101563,-1.171875 -3.4101563,-3.609375 0,-0.5507812 0.1757813,-3.5507812 2.1210938,-5.8007812 0.9375,-1.1015628 2.5546875,-2.0742188 4.1953125,-2.0742188 1.8984379,0 2.7421879,1.570313 2.7421879,3.328125 0,0.4453125 -0.05859,0.8203125 -0.05859,0.890625 0,0.1640625 0.175781,0.1640625 0.222656,0.1640625 0.1875,0 0.210938,-0.023437 0.28125,-0.328125 z m 0,0"
       style="fill:#000000;fill-opacity:1;fill-rule:nonzero;stroke:none"
       aria-label="C"
       transform="matrix(1.3333333,0,0,1.3333333,443.24667,147.564)" />
    <path
       id="path38"
       d="m 311.81488,28.3468 c 0,7.82785 -6.34555,14.1734 -14.17338,14.1734 -7.82786,0 -14.1734,-6.34555 -14.1734,-14.1734 0,-7.82785 6.34554,-14.1734 14.1734,-14.1734 7.82783,0 14.17338,6.34555 14.17338,14.1734 z"
       style="fill:none;stroke:#000000;stroke-width:1.19553;stroke-linecap:butt;stroke-linejoin:miter;stroke-miterlimit:10;stroke-dasharray:none;stroke-opacity:1"
       transform="matrix(1.3333333,0,0,-1.3333333,168.64667,177.51733)" />
    <path
       id="path39"
       d="m 311.81488,28.3468 h 22.60826"
       style="fill:none;stroke:#000000;stroke-width:1.19553;stroke-linecap:butt;stroke-linejoin:miter;stroke-miterlimit:10;stroke-dasharray:none;stroke-opacity:1"
       transform="matrix(1.3333333,0,0,-1.3333333,168.64667,177.51733)" />
    <path
       id="path40"
       d="M 5.73854,0 C 4.0382,0.31879 1.27522,1.27522 -0.6376,2.39105 v -4.7821 C 1.27522,-1.27522 4.0382,-0.31879 5.73854,0"
       style="fill:#000000;fill-opacity:1;fill-rule:nonzero;stroke:none"
       transform="matrix(1.3333333,0,0,-1.3333333,614.54419,139.7216)" />
    <path
       id="path41"
       d="M 4.5220938,1.9339609 C 4.0650625,2.5784922 3.385375,3.1644297 2.541625,3.1644297 c -0.1992187,0 -1.03125,-0.035156 -1.2890625,-0.8203125 0.058594,0.011719 0.140625,0.011719 0.1757813,0.011719 0.515625,0 0.8554687,-0.4453125 0.8554687,-0.84375 0,-0.3984375 -0.328125,-0.52734371 -0.5859375,-0.52734371 -0.2695312,0 -0.8671875,0.19921871 -0.8671875,1.04296871 0,0.8789063 0.7382813,1.4882813 1.7109375,1.4882813 1.7226563,0 3.46875,-1.5820313 3.9492188,-3.50390626 l 1.6875,-6.70312504 c 0.011719,-0.09375 0.046875,-0.1992187 0.046875,-0.2929687 0,-0.2578125 -0.1992188,-0.4335938 -0.4570313,-0.4335938 -0.1640625,0 -0.5273437,0.070312 -0.65625,0.5859375 l -1.2773437,5.0625 c -0.082031,0.3046875 -0.082031,0.3398438 -0.2226563,0.5273438 -0.3398437,0.48046874 -0.9140625,1.06640624 -1.734375,1.06640624 -0.9726562,0 -1.0546875,-0.93750004 -1.0546875,-1.40625004 0,-0.984375 0.46875,-2.3085937 0.9257813,-3.5507812 0.1875,-0.4921875 0.2929687,-0.7382813 0.2929687,-1.078125 0,-0.7265625 -0.515625,-1.3828125 -1.359375,-1.3828125 -1.5820312,0 -2.21484375,2.4960937 -2.21484375,2.6367187 0,0.070312 0.0703125,0.1523438 0.1875,0.1523438 0.15234375,0 0.17578125,-0.070312 0.234375,-0.3046875 C 1.3111563,-6.5621325 1.9556875,-7.24182 2.635375,-7.24182 c 0.1523438,0 0.4453125,0 0.4453125,0.5625 0,0.4453125 -0.1875,0.9492187 -0.4453125,1.6054687 -0.84375,2.25 -0.84375,2.8242188 -0.84375,3.234375 0,1.62890629 1.171875,2.01562504 2.0273438,2.01562504 0.5039062,0 1.125,-0.1640625 1.7226562,-0.796875 l 0.011719,0.0234375 C 5.2955313,0.41052344 5.1314688,1.0902109 4.5220938,1.9339609 Z m 0,0"
       style="fill:#000000;fill-opacity:1;fill-rule:nonzero;stroke:none"
       aria-label="y"
       transform="matrix(1.3333333,0,0,1.3333333,616.29867,130.03467)" />
    <path
       id="path42"
       d="m 240.94788,28.3468 h 36.78166"
       style="fill:none;stroke:#000000;stroke-width:1.19553;stroke-linecap:butt;stroke-linejoin:miter;stroke-miterlimit:10;stroke-dasharray:none;stroke-opacity:1"
       transform="matrix(1.3333333,0,0,-1.3333333,168.64667,177.51733)" />
    <path
       id="path43"
       d="M 5.73854,0 C 4.0382,0.31879 1.27522,1.27522 -0.6376,2.39105 v -4.7821 C 1.27522,-1.27522 4.0382,-0.31879 5.73854,0"
       style="fill:#000000;fill-opacity:1;fill-rule:nonzero;stroke:none"
       transform="matrix(1.3333333,0,0,-1.3333333,538.95272,139.7216)" />
    <path
       id="path44"
       d="m 6.4918594,-3.9967969 h 4.5585936 c 0.246094,0 0.539063,0 0.539063,-0.2929687 0,-0.3046875 -0.28125,-0.3046875 -0.539063,-0.3046875 H 6.4918594 v -4.5703125 c 0,-0.234375 0,-0.5273438 -0.2929688,-0.5273438 -0.3164062,0 -0.3164062,0.2695313 -0.3164062,0.5273438 v 4.5703125 H 1.3238906 c -0.234375,0 -0.52734373,0 -0.52734373,0.2929687 0,0.3046875 0.26953123,0.3046875 0.52734373,0.3046875 h 4.5585938 v 4.55859378 c 0,0.24609375 0,0.53906252 0.2929687,0.53906252 0.3164063,0 0.3164063,-0.26953127 0.3164063,-0.53906252 z m 0,0"
       style="fill:#000000;fill-opacity:1;fill-rule:nonzero;stroke:none"
       aria-label="+"
       transform="matrix(1.3333333,0,0,1.3333333,524.852,133.04)" />
    <path
       id="path45"
       d="m 70.867,70.867 v 56.69362 h 56.69362 V 70.867 Z"
       style="fill:none;stroke:#000000;stroke-width:1.19553;stroke-linecap:butt;stroke-linejoin:miter;stroke-miterlimit:10;stroke-dasharray:none;stroke-opacity:1"
       transform="matrix(1.3333333,0,0,-1.3333333,168.64667,177.51733)" />
    <path
       id="path46"
       d="m 2.7058984,-1.2786797 c -0.1640625,0.60937501 -0.1992187,0.77343751 -1.3945312,0.77343751 -0.32812501,0 -0.50390626,0 -0.50390626,0.31640625 0,0.1875 0.10546875,0.1875 0.44531246,0.1875 h 5.4609375 c 3.4804691,0 6.8671871,-3.59765626 6.8671871,-7.44140626 0,-2.4726562 -1.476562,-4.3124998 -3.9374996,-4.3124998 h -5.53125 c -0.328125,0 -0.4804687,0 -0.4804687,0.328125 0,0.164062 0.1523437,0.164062 0.4101562,0.164062 1.0546875,0 1.0546875,0.140625 1.0546875,0.328125 0,0.03516 0,0.140625 -0.070312,0.398438 z m 3.6328125,-9.3046873 c 0.1523438,-0.644531 0.2226563,-0.679688 0.890625,-0.679688 h 1.8984375 c 1.6171876,0 3.0937496,0.878907 3.0937496,3.2578128 0,0.8554688 -0.339843,3.8554688 -2.015625,5.7539063 -0.4804683,0.5625 -1.7929683,1.74609371 -3.7734371,1.74609371 H 4.4754297 c -0.2460938,0 -0.28125,0 -0.375,-0.0117188 -0.1992188,-0.0234375 -0.2109375,-0.046875 -0.2109375,-0.1875 0,-0.12890625 0.035156,-0.22265625 0.070312,-0.38671871 z m 0,0"
       style="fill:#000000;fill-opacity:1;fill-rule:nonzero;stroke:none"
       aria-label="D"
       transform="matrix(1.3333333,0,0,1.3333333,291.28667,53.076)" />
    <path
       id="path47"
       d="M -99.21384,28.3468 V 99.21382 H 65.12846"
       style="fill:none;stroke:#000000;stroke-width:1.19553;stroke-linecap:butt;stroke-linejoin:miter;stroke-miterlimit:10;stroke-dasharray:none;stroke-opacity:1"
       transform="matrix(1.3333333,0,0,-1.3333333,168.64667,177.51733)" />
    <path
       id="path48"
       d="M 5.73854,0 C 4.0382,0.31879 1.27522,1.27522 -0.6376,2.39105 v -4.7821 C 1.27522,-1.27522 4.0382,-0.31879 5.73854,0"
       style="fill:#000000;fill-opacity:1;fill-rule:nonzero;stroke:none"
       transform="matrix(1.3333333,0,0,-1.3333333,255.48461,45.23224)" />
    <path
       id="path49"
       d="M 127.56062,99.21382 H 297.6415 V 48.25874"
       style="fill:none;stroke:#000000;stroke-width:1.19553;stroke-linecap:butt;stroke-linejoin:miter;stroke-miterlimit:10;stroke-dasharray:none;stroke-opacity:1"
       transform="matrix(1.3333333,0,0,-1.3333333,168.64667,177.51733)" />
    <path
       id="path50"
       d="M 5.73854,0 C 4.0382,0.31879 1.27522,1.27522 -0.6376,2.39105 v -4.7821 C 1.27522,-1.27522 4.0382,-0.31879 5.73854,0"
       style="fill:#000000;fill-opacity:1;fill-rule:nonzero;stroke:none"
       transform="matrix(0,1.3333333,1.3333333,0,565.502,113.17235)" />
    <path
       id="path51"
       d="m 6.4931797,-3.9946953 h 4.5585933 c 0.246094,0 0.539063,0 0.539063,-0.2929688 0,-0.3046875 -0.28125,-0.3046875 -0.539063,-0.3046875 H 6.4931797 v -4.5703125 c 0,-0.234375 0,-0.5273437 -0.2929688,-0.5273437 -0.3164062,0 -0.3164062,0.2695312 -0.3164062,0.5273437 v 4.5703125 H 1.3252109 c -0.234375,0 -0.52734371,0 -0.52734371,0.2929688 0,0.3046875 0.26953121,0.3046875 0.52734371,0.3046875 h 4.5585938 v 4.55859374 c 0,0.24609375 0,0.53906246 0.2929687,0.53906246 0.3164063,0 0.3164063,-0.26953121 0.3164063,-0.53906246 z m 0,0"
       style="fill:#000000;fill-opacity:1;fill-rule:nonzero;stroke:none"
       aria-label="+"
       transform="matrix(1.3333333,0,0,1.3333333,570.72133,114.14267)" />
  </g>
  <g
     id="1 - Annotations"
     inkscape:groupmode="layer"
     inkscape:label="1 - Annotations">
    <g
       id="g51" />
  </g>
</svg>
